# xmcd
#
# Track frame offsets: 
#        150
#        18225
#        32807
#        50850
#        67872
#        85552
#        101695
#        116280
#        134955
#        151222
#        169840
#        188957
#        205640
#        222665
#        235737
#        252890
#
# Disc length: 3607 seconds
#
# Revision: 0
# Processed by: cddbd v1.5.2PL0 Copyright (c) Steve Scherf et al.
# Submitted via: ExactAudioCopy v1.0b3
#
DISCID=dc0e1510
DTITLE=美川憲一 - 美川憲一全曲集
DYEAR=1900
DGENRE=
TTITLE0=北国夜曲
TTITLE1=さそり座の女
TTITLE2=花冷え
TTITLE3=幸せになりたい
TTITLE4=女の意地
TTITLE5=柳ヶ瀬ブルース
TTITLE6=熱海の夜
TTITLE7=おんなの朝
TTITLE8=はしゃぎすぎたのね
TTITLE9=今日でお別れ
TTITLE10=新潟ブルース
TTITLE11=夜の慕情
TTITLE12=生命のブルース
TTITLE13=京都の夜
TTITLE14=夜の銀狐
TTITLE15=釧路の夜
EXTD=
EXTT0=
EXTT1=
EXTT2=
EXTT3=
EXTT4=
EXTT5=
EXTT6=
EXTT7=
EXTT8=
EXTT9=
EXTT10=
EXTT11=
EXTT12=
EXTT13=
EXTT14=
EXTT15=
PLAYORDER=
